<svg height="480pt" viewBox="-16 0 480 480" width="480pt" xmlns="http://www.w3.org/2000/svg" xmlns:xlink="http://www.w3.org/1999/xlink"><path d="m207.972656 480c26.5-.027344 47.972656-21.5 48-48v-246.273438l32.800782-72.125c11.3125-24.871093 9.210937-53.78125-5.578126-76.753906-14.789062-22.96875-40.238281-36.85156225-67.558593-36.847656h-15.328125c-27.320313-.00390625-52.769532 13.878906-67.558594 36.847656-14.789062 22.972656-16.890625 51.882813-5.578125 76.753906l32.800781 72.125v246.273438c.027344 26.5 21.5 47.972656 48 48zm32-256h-64v-32h64zm-32 240c-17.671875 0-32-14.328125-32-32v-192h64v16h-16v16h16v160c0 17.671875-14.328125 32-32 32zm-72-383.664062c.035156-35.515626 28.820313-64.300782 64.335938-64.335938h15.328125c21.875-.003906 42.25 11.109375 54.09375 29.5 11.839843 18.390625 13.527343 41.539062 4.472656 61.453125l-31.382813 69.046875h-69.695312l-31.382812-69.046875c-3.789063-8.363281-5.757813-17.4375-5.769532-26.617187zm0 0" fill="#e96589" /><path d="m207.972656 272h16v16h-16zm0 0" fill="#e96589" /><path d="m39.972656 480c17.671875 0 32-14.328125 32-32v-327.6875l8-103.695312c.222656-2.875-1.117187-5.648438-3.507812-7.257813s-5.464844-1.808594-8.042969-.519531l-64 32c-2.984375 1.492187-4.730469 4.683594-4.3789062 8l7.9296872 71.625v327.535156c0 17.671875 14.328125 32 32 32zm16-320h-32v-32h32zm-16 304c-8.835937 0-16-7.164062-16-16v-272h32v272c0 8.835938-7.164062 16-16 16zm22.9375-434.519531-6.34375 82.519531h-33.394531l-6.632813-59.335938zm0 0" fill="#e96589" /><path d="m445.628906 178.34375c-47.335937-47.230469-123.972656-47.230469-171.3125 0-2.976562 2.976562-3.136718 7.75-.367187 10.921875l54.023437 61.742187v196.992188c0 17.671875 14.328125 32 32 32s32-14.328125 32-32v-196.992188l54.023438-61.742187c2.769531-3.171875 2.609375-7.945313-.367188-10.921875zm-69.65625 109.65625h-32v-32h32zm-16 176c-8.835937 0-16-7.164062-16-16v-144h32v144c0 8.835938-7.164062 16-16 16zm20.367188-224h-40.734375l-48.503907-55.441406c4.6875-4.058594 9.726563-7.695313 15.054688-10.863282l15.160156 22.746094 13.3125-8.882812-13.976562-20.957032c10-4.042968 20.566406-6.519531 31.320312-7.34375v24.742188h16v-24.742188c10.753906.824219 21.320313 3.300782 31.320313 7.34375l-13.976563 20.957032 13.3125 8.882812 15.160156-22.746094c5.332032 3.167969 10.367188 6.804688 15.054688 10.863282zm0 0" fill="#e96589" /></svg>