<svg height="496pt" viewBox="0 0 496 496" width="496pt" xmlns="http://www.w3.org/2000/svg"><path fill="#e96589" d="m448 112h-3.039062l-152.617188 135.65625 16.648438 16.648438-109.808594 122.726562c-4.6875-1.925781-9.808594-3.03125-15.183594-3.03125h-4.28125l-25.503906 38.246094c-6.679688 10.035156-10.214844 21.707031-10.214844 33.753906v8h8c12.046875 0 23.71875-3.535156 33.753906-10.214844l38.246094-25.503906v-4.28125c0-5.375-1.105469-10.496094-3.03125-15.183594l122.726562-109.808594 16.648438 16.648438 135.65625-152.617188v-3.039062c0-26.472656-21.527344-48-48-48zm-271.128906 328.472656c-4.886719 3.253906-10.3125 5.503906-15.992188 6.648438 1.144532-5.679688 3.394532-11.105469 6.648438-15.992188l20.519531-30.785156c9.992187 1.703125 17.898437 9.609375 19.601563 19.601562zm41.121094-50.464844 102.328124-114.367187 12.039063 12.039063zm141.664062-97.664062-44-44 135.238281-120.214844c15.335938 1.382813 27.59375 13.640625 28.976563 28.976563zm0 0"/><path fill="#e96589" d="m80 472c0-4.40625 3.59375-8 8-8h40v-16h-40c-13.230469 0-24 10.769531-24 24s10.769531 24 24 24h320v-16h-320c-4.40625 0-8-3.59375-8-8zm0 0"/><path fill="#e96589" d="m50.476562 273.058594 15.859376-2.117188 2.132812 16-15.859375 2.117188zm0 0"/><path fill="#e96589" d="m96 336h-16.59375c-2.496094 0-4.636719-1.871094-4.964844-4.351562l-4.898437-36.703126-15.863281 2.109376 4.894531 36.707031c1.394531 10.398437 10.347656 18.238281 20.832031 18.238281h16.59375zm0 0"/><path fill="#e96589" d="m112.59375 384c26.460938 0 49.046875-19.777344 52.542969-46l26.398437-197.984375c.304688-2.328125.464844-4.664063.464844-7.007813 0-27.535156-21.113281-50.222656-48-52.761718v-33.71875c9.289062-3.3125 16-12.113282 16-22.527344 0-13.230469-10.769531-24-24-24h-80c-13.230469 0-24 10.769531-24 24 0 10.414062 6.710938 19.214844 16 22.527344v33.730468c-26.886719 2.535157-48 25.214844-48 52.757813 0 2.335937.160156 4.679687.464844 7.007813l26.398437 197.976562c3.496094 26.222656 26.089844 46 52.542969 46zm15.40625-336v32h-64v-32zm-74.992188 48h85.976563c1.253906 0 2.441406.246094 3.671875.367188l-17.824219 118.800781c-2.121093 14.160156-14.511719 24.832031-28.832031 24.832031s-26.710938-10.671875-28.832031-24.832031l-17.824219-118.800781c1.222656-.121094 2.410156-.367188 3.664062-.367188zm2.992188-80h80c4.40625 0 8 3.59375 8 8s-3.59375 8-8 8h-80c-4.40625 0-8-3.59375-8-8s3.59375-8 8-8zm-13.28125 319.878906-26.398438-197.96875c-.207031-1.621094-.320312-3.261718-.320312-4.902344 0-13.40625 7.230469-25.054687 17.929688-31.550781l17.414062 116.078125c3.335938 22.289063 22.121094 38.464844 44.65625 38.464844s41.320312-16.175781 44.65625-38.457031l17.414062-116.078125c10.699219 6.488281 17.929688 18.144531 17.929688 31.542968 0 1.640626-.113281 3.273438-.328125 4.886719l-26.398437 197.976563c-2.441407 18.320312-18.210938 32.128906-36.679688 32.128906h-33.179688c-18.476562 0-34.246093-13.808594-36.695312-32.121094zm0 0"/></svg>