<svg height="480pt" viewBox="-63 0 479 480" width="480pt" xmlns="http://www.w3.org/2000/svg" xmlns:xlink="http://www.w3.org/1999/xlink"><path d="m344.5 480c4.417969 0 8-3.582031 8-8v-240.800781c-.03125-21.636719-17.5625-39.167969-39.199219-39.199219h-81.601562c-21.636719.03125-39.167969 17.5625-39.199219 39.199219v240.800781c0 4.417969 3.582031 8 8 8zm-136-154.800781 128-56.886719v38.488281l-128 56.886719zm96 138.800781v-72h-16v72h-80v-82.800781l128-56.886719v139.6875zm-72.800781-256h81.601562c12.8125 0 23.199219 10.386719 23.199219 23.199219v19.601562l-128 56.886719v-76.488281c0-12.8125 10.386719-23.199219 23.199219-23.199219zm0 0" fill="#e96589" /><path d="m40.5 0c-4.417969 0-8 3.582031-8 8v152h-8c-4.417969 0-8 3.582031-8 8v104h-8c-4.417969 0-8 3.582031-8 8v192c0 4.417969 3.582031 8 8 8h144c4.417969 0 8-3.582031 8-8v-192c0-4.417969-3.582031-8-8-8h-8v-104c0-4.417969-3.582031-8-8-8h-8v-72c-.058594-48.578125-39.421875-87.9414062-88-88zm8 16.441406c36.421875 4.117188 63.957031 34.90625 64 71.558594v72h-64zm-24 271.558594h120v16h-128v-16zm120 98.800781-128 56.886719v-38.488281l128-56.886719zm-128 .886719v-67.6875h128v10.800781zm0 76.3125v-2.800781l128-56.886719v59.6875zm16-192v-96h96v96zm0 0" fill="#e96589" /><path d="m288.5 360h16v16h-16zm0 0" fill="#e96589" /></svg>